<?xml version="1.0" standalone="no"?>
<!DOCTYPE svg PUBLIC "-//W3C//DTD SVG 20010904//EN"
 "http://www.w3.org/TR/2001/REC-SVG-20010904/DTD/svg10.dtd">
<svg version="1.0" xmlns="http://www.w3.org/2000/svg"
 width="202.000000pt" height="202.000000pt" viewBox="0 0 202.000000 202.000000"
 preserveAspectRatio="xMidYMid meet">

<g transform="translate(0.000000,202.000000) scale(0.100000,-0.100000)"
fill="#000000" stroke="none">
<path d="M870 2009 c-146 -19 -335 -97 -460 -189 -284 -212 -440 -566 -402
-913 67 -616 660 -1027 1256 -872 553 144 879 727 709 1269 -149 477 -607 769
-1103 705z m694 -457 c9 -43 19 -87 22 -99 5 -18 0 -22 -36 -28 -23 -4 -43 -5
-46 -2 -7 7 28 207 36 207 4 0 15 -35 24 -78z m-150 -51 c-13 -82 -22 -112
-33 -115 -67 -18 -121 -29 -126 -25 -4 5 30 217 37 224 5 5 133 32 136 29 2
-1 -4 -52 -14 -113z m-234 44 c0 -42 -33 -211 -42 -216 -13 -8 -129 -32 -133
-27 -3 3 33 220 38 223 2 2 118 32 130 34 4 1 7 -6 7 -14z m-245 -67 c-2 -13
-9 -52 -15 -88 -21 -127 -13 -116 -91 -135 -38 -10 -72 -16 -74 -14 -4 5 30
218 36 223 5 4 120 34 137 35 8 1 11 -7 7 -21z m-249 -65 c-3 -16 -10 -57 -16
-93 -18 -113 -13 -106 -84 -124 -84 -21 -87 -20 -81 7 2 12 12 63 20 113 l17
91 61 15 c89 22 89 22 83 -9z m-251 -70 c-4 -21 -11 -60 -16 -86 -16 -86 -14
-97 25 -97 19 0 37 -3 40 -8 2 -4 -15 -54 -39 -112 l-44 -105 -1 105 c0 78 -7
130 -25 200 -14 52 -25 100 -25 107 0 7 15 17 33 22 56 16 58 15 52 -26z m300
-193 c4 -6 -12 -56 -35 -110 l-42 -100 -74 0 c-41 0 -74 3 -74 6 0 7 69 173
81 197 8 13 23 17 74 17 35 0 67 -5 70 -10z m258 2 c3 -4 -14 -53 -36 -110
l-42 -102 -78 0 -77 0 13 33 c8 17 27 61 42 97 15 36 32 71 37 78 11 13 133
17 141 4z m259 3 c3 -3 -15 -53 -40 -110 l-46 -105 -74 0 c-55 0 -73 3 -69 13
3 6 24 56 47 110 l42 97 68 0 c36 0 69 -2 72 -5z m257 -7 c0 -7 -19 -56 -42
-108 l-42 -95 -73 -3 c-39 -2 -72 1 -72 5 0 9 63 162 80 193 9 17 21 20 80 20
50 0 70 -4 69 -12z m111 -108 l0 -100 -46 0 c-33 0 -45 4 -41 13 34 83 81 187
83 187 2 0 4 -45 4 -100z"/>
</g>
</svg>
